<svg width="500" height="500" version="1.1" xmlns="http://www.w3.org/2000/svg" desc="Created with imagetracer.js version 1.2.6" ><path fill="rgb(65,65,65)" stroke="rgb(65,65,65)" stroke-width="1" opacity="1" d="M 262.5 0 L 281.5 0 L 282.5 1 L 300.5 2 L 318.5 6 L 335.5 12 Q 370.6 26.9 394 53.5 Q 420.9 83.1 434 126.5 L 445 166.5 L 445 170.5 L 454 207.5 L 454 212.5 L 457 225.5 L 457 232.5 L 458 233.5 L 458 242.5 L 459 243.5 L 459 260.5 L 458 261.5 L 457 275.5 L 452 295.5 Q 447.5 306.5 438.5 313 L 425.5 320 L 403.5 328 L 389 339.5 L 384 346.5 L 362 389.5 L 341 424.5 Q 333.9 436.4 323.5 445 L 306.5 453 L 291.5 454 L 283.5 451 L 266.5 438 L 261.5 436 L 257 439.5 L 244 467.5 L 234.5 478 Q 229.7 482.7 218.5 481 L 208.5 477 L 192.5 462 L 185.5 459 Q 168.2 471.7 147.5 481 L 128.5 487 L 118.5 487 L 109.5 484 L 105 479.5 L 101 471.5 L 99 461.5 L 99 422.5 Q 96.2 420.8 98 414.5 L 94.5 408 L 90.5 406 L 70.5 406 Q 69.3 403.7 64.5 405 Q 55.1 402.9 50 396.5 L 46 388.5 Q 47.8 382.3 45 380.5 L 46 379.5 L 46 371.5 L 50 356.5 L 69 298.5 L 84 244.5 L 90 213.5 L 90 207.5 L 91 206.5 L 97 161.5 L 106 122.5 Q 113.3 97.8 125 77.5 Q 137.5 56.5 155.5 41 Q 176.8 22.8 205.5 12 L 237.5 3 L 243.5 3 L 251.5 1 L 261.5 1 L 262.5 0 Z M 270 5 L 269 6 L 254 6 L 253 7 L 241 8 L 210 16 L 185 27 L 158 46 Q 142 59 131 78 Q 120 96 113 118 L 102 164 L 98 195 L 97 196 L 97 203 L 95 210 L 95 216 L 87 255 L 51 375 Q 49 386 53 392 Q 57 397 64 399 L 78 400 L 79 401 L 93 401 L 97 403 L 102 411 L 104 419 L 104 460 L 108 475 L 114 480 L 122 482 L 131 481 L 148 475 L 185 454 L 189 454 L 195 457 L 211 472 L 221 476 Q 229 477 233 473 L 239 466 L 253 437 L 261 431 L 269 433 L 286 446 L 294 449 L 306 448 L 321 441 L 329 433 L 343 412 L 384 338 L 397 326 Q 409 319 425 315 L 436 309 Q 444 304 447 294 L 451 280 L 452 268 L 453 267 L 453 258 L 454 257 L 453 237 L 452 236 L 452 229 L 448 210 L 448 205 L 442 177 L 430 132 Q 418 90 394 62 Q 371 34 337 18 Q 322 11 304 8 L 292 7 L 291 6 L 281 6 L 280 5 L 270 5 Z " /><path fill="rgb(65,65,65)" stroke="rgb(65,65,65)" stroke-width="1" opacity="1" d="M 354.5 160 Q 365.8 160.2 370 167.5 L 373 174.5 L 373 179.5 Q 371.1 187.2 365.5 191 Q 361.5 194 354.5 194 Q 346.9 192.5 343 187.5 Q 338.5 183 340 172.5 L 346.5 163 L 354.5 160 Z " /><path fill="rgb(65,65,65)" stroke="rgb(65,65,65)" stroke-width="1" opacity="1" d="M 216.5 170 L 226.5 171 L 234 177.5 L 237 187.5 Q 235.3 196.8 228.5 201 Q 224.5 204 216.5 203 Q 209.3 201.2 206 195.5 L 203 185.5 Q 204.8 176.3 211.5 172 L 216.5 170 Z " /><path fill="rgb(65,65,65)" stroke="rgb(65,65,65)" stroke-width="1" opacity="1" d="M 310 195 L 315 195 L 315 196.5 Q 317.8 198.3 316 204.5 Q 313.7 215.2 305.5 220 L 297.5 223 L 289.5 223 Q 281 220.5 276 214.5 Q 272 210.5 272 202.5 L 275.5 200 Q 279.4 202.6 280 208.5 L 285.5 214 Q 289.5 217 297.5 216 L 307 209.5 L 309 204.5 Q 308.1 197.7 310 195 Z " /><path fill="rgb(65,65,65)" stroke="rgb(65,65,65)" stroke-width="1" opacity="1" d="M 179.5 232 L 205.5 242 L 249.5 251 Q 256.9 253.6 261 259.5 Q 264 263.5 263 271.5 Q 259.7 282.6 250.5 288 Q 235.3 298.8 215.5 305 L 199.5 309 L 184 310 Q 181.9 304.8 186.5 306 L 187.5 305 L 204.5 303 L 224.5 297 L 245.5 286 L 256 276.5 Q 259.5 272.5 258 263.5 L 254.5 259 L 243.5 254 L 228.5 252 L 196.5 244 L 178 235.5 L 179.5 232 Z " /><path fill="rgb(254,254,254)" stroke="rgb(254,254,254)" stroke-width="1" opacity="1" d="M 257.5 0 L 262 0.5 L 257.5 1 L 257.5 0 Z " /><path fill="rgb(254,254,254)" stroke="rgb(254,254,254)" stroke-width="1" opacity="1" d="M 282.5 0 L 287 0.5 L 282.5 1 L 282.5 0 Z " /><path fill="rgb(254,254,254)" stroke="rgb(254,254,254)" stroke-width="1" opacity="1" d="M 248.5 1 L 251 1.5 L 248.5 2 L 248.5 1 Z " /><path fill="rgb(254,254,254)" stroke="rgb(254,254,254)" stroke-width="1" opacity="1" d="M 294.5 1 L 297 1.5 L 294.5 2 L 294.5 1 Z " /><path fill="rgb(254,254,254)" stroke="rgb(254,254,254)" stroke-width="1" opacity="1" d="M 241.5 2 L 244 2.5 L 241.5 3 L 241.5 2 Z " /><path fill="rgb(254,254,254)" stroke="rgb(254,254,254)" stroke-width="1" opacity="1" d="M 269.5 5 L 280 5.5 L 269.5 6 L 269.5 5 Z " /><path fill="rgb(254,254,254)" stroke="rgb(254,254,254)" stroke-width="1" opacity="1" d="M 253.5 6 L 256 6.5 L 253.5 7 L 253.5 6 Z " /><path fill="rgb(254,254,254)" stroke="rgb(254,254,254)" stroke-width="1" opacity="1" d="M 288.5 6 L 291 6.5 L 288.5 7 L 288.5 6 Z " /><path fill="rgb(254,254,254)" stroke="rgb(254,254,254)" stroke-width="1" opacity="1" d="M 361.5 25 L 362.5 27 L 361.5 25 Z " /><path fill="rgb(254,254,254)" stroke="rgb(254,254,254)" stroke-width="1" opacity="1" d="M 175.5 26 L 174.5 28 L 175.5 26 Z " /><path fill="rgb(254,254,254)" stroke="rgb(254,254,254)" stroke-width="1" opacity="1" d="M 364.5 27 L 365.5 29 L 364.5 27 Z " /><path fill="rgb(254,254,254)" stroke="rgb(254,254,254)" stroke-width="1" opacity="1" d="M 358.5 30 L 359.5 32 L 358.5 30 Z " /><path fill="rgb(254,254,254)" stroke="rgb(254,254,254)" stroke-width="1" opacity="1" d="M 368.5 30 L 369.5 32 L 368.5 30 Z " /><path fill="rgb(254,254,254)" stroke="rgb(254,254,254)" stroke-width="1" opacity="1" d="M 361.5 32 L 362.5 34 L 361.5 32 Z " /><path fill="rgb(254,254,254)" stroke="rgb(254,254,254)" stroke-width="1" opacity="1" d="M 371.5 32 L 373.5 35 L 371.5 32 Z " /><path fill="rgb(254,254,254)" stroke="rgb(254,254,254)" stroke-width="1" opacity="1" d="M 174.5 33 L 173.5 35 L 174.5 33 Z " /><path fill="rgb(254,254,254)" stroke="rgb(254,254,254)" stroke-width="1" opacity="1" d="M 163.5 34 L 161.5 37 L 163.5 34 Z " /><path fill="rgb(254,254,254)" stroke="rgb(254,254,254)" stroke-width="1" opacity="1" d="M 365.5 35 L 366.5 37 L 365.5 35 Z " /><path fill="rgb(254,254,254)" stroke="rgb(254,254,254)" stroke-width="1" opacity="1" d="M 376.5 36 L 380.5 41 L 376.5 36 Z " /><path fill="rgb(254,254,254)" stroke="rgb(254,254,254)" stroke-width="1" opacity="1" d="M 158.5 38 L 156.5 41 L 158.5 38 Z " /><path fill="rgb(254,254,254)" stroke="rgb(254,254,254)" stroke-width="1" opacity="1" d="M 167.5 38 L 166.5 40 L 167.5 38 Z " /><path fill="rgb(254,254,254)" stroke="rgb(254,254,254)" stroke-width="1" opacity="1" d="M 369.5 38 L 370.5 40 L 369.5 38 Z " /><path fill="rgb(254,254,254)" stroke="rgb(254,254,254)" stroke-width="1" opacity="1" d="M 163.5 41 L 161.5 44 L 163.5 41 Z " /><path fill="rgb(254,254,254)" stroke="rgb(254,254,254)" stroke-width="1" opacity="1" d="M 373.5 41 L 379.5 48 L 373.5 41 Z " /><path fill="rgb(254,254,254)" stroke="rgb(254,254,254)" stroke-width="1" opacity="1" d="M 151.5 44 L 142.5 54 L 151.5 44 Z " /><path fill="rgb(254,254,254)" stroke="rgb(254,254,254)" stroke-width="1" opacity="1" d="M 157.5 46 L 144.5 60 L 157.5 46 Z " /><path fill="rgb(254,254,254)" stroke="rgb(254,254,254)" stroke-width="1" opacity="1" d="M 390.5 49 L 391.5 51 L 390.5 49 Z " /><path fill="rgb(254,254,254)" stroke="rgb(254,254,254)" stroke-width="1" opacity="1" d="M 394.5 54 L 398.5 59 L 394.5 54 Z " /><path fill="rgb(254,254,254)" stroke="rgb(254,254,254)" stroke-width="1" opacity="1" d="M 139.5 57 L 137.5 60 L 139.5 57 Z " /><path fill="rgb(254,254,254)" stroke="rgb(254,254,254)" stroke-width="1" opacity="1" d="M 389.5 57 L 393.5 62 L 389.5 57 Z " /><path fill="rgb(254,254,254)" stroke="rgb(254,254,254)" stroke-width="1" opacity="1" d="M 400.5 61 L 401.5 63 L 400.5 61 Z " /><path fill="rgb(254,254,254)" stroke="rgb(254,254,254)" stroke-width="1" opacity="1" d="M 135.5 62 L 134.5 64 L 135.5 62 Z " /><path fill="rgb(254,254,254)" stroke="rgb(254,254,254)" stroke-width="1" opacity="1" d="M 141.5 63 L 140.5 65 L 141.5 63 Z " /><path fill="rgb(254,254,254)" stroke="rgb(254,254,254)" stroke-width="1" opacity="1" d="M 395.5 64 L 396.5 66 L 395.5 64 Z " /><path fill="rgb(254,254,254)" stroke="rgb(254,254,254)" stroke-width="1" opacity="1" d="M 403.5 65 L 404.5 67 L 403.5 65 Z " /><path fill="rgb(254,254,254)" stroke="rgb(254,254,254)" stroke-width="1" opacity="1" d="M 132.5 66 L 131.5 68 L 132.5 66 Z " /><path fill="rgb(254,254,254)" stroke="rgb(254,254,254)" stroke-width="1" opacity="1" d="M 138.5 67 L 137.5 69 L 138.5 67 Z " /><path fill="rgb(254,254,254)" stroke="rgb(254,254,254)" stroke-width="1" opacity="1" d="M 398.5 68 L 399.5 70 L 398.5 68 Z " /><path fill="rgb(254,254,254)" stroke="rgb(254,254,254)" stroke-width="1" opacity="1" d="M 130.5 69 L 129.5 71 L 130.5 69 Z " /><path fill="rgb(254,254,254)" stroke="rgb(254,254,254)" stroke-width="1" opacity="1" d="M 406.5 69 L 407.5 71 L 406.5 69 Z " /><path fill="rgb(254,254,254)" stroke="rgb(254,254,254)" stroke-width="1" opacity="1" d="M 128.5 72 L 127.5 74 L 128.5 72 Z " /><path fill="rgb(254,254,254)" stroke="rgb(254,254,254)" stroke-width="1" opacity="1" d="M 401.5 72 L 402.5 74 L 401.5 72 Z " /><path fill="rgb(254,254,254)" stroke="rgb(254,254,254)" stroke-width="1" opacity="1" d="M 403.5 75 L 404.5 77 L 403.5 75 Z " /><path fill="rgb(254,254,254)" stroke="rgb(254,254,254)" stroke-width="1" opacity="1" d="M 132.5 76 L 131.5 78 L 132.5 76 Z " /><path fill="rgb(254,254,254)" stroke="rgb(254,254,254)" stroke-width="1" opacity="1" d="M 405.5 78 L 406.5 80 L 405.5 78 Z " /><path fill="rgb(254,254,254)" stroke="rgb(254,254,254)" stroke-width="1" opacity="1" d="M 362.5 161 L 365 162.5 L 363.5 162 L 362.5 161 Z " /><path fill="rgb(254,254,254)" stroke="rgb(254,254,254)" stroke-width="1" opacity="1" d="M 345.5 163 L 343.5 166 L 345.5 163 Z " /><path fill="rgb(254,254,254)" stroke="rgb(254,254,254)" stroke-width="1" opacity="1" d="M 366.5 163 L 369.5 167 L 366.5 163 Z " /><path fill="rgb(254,254,254)" stroke="rgb(254,254,254)" stroke-width="1" opacity="1" d="M 342.5 167 L 341.5 169 L 342.5 167 Z " /><path fill="rgb(254,254,254)" stroke="rgb(254,254,254)" stroke-width="1" opacity="1" d="M 370.5 168 L 372 170.5 L 371 170.5 L 370.5 168 Z " /><path fill="rgb(254,254,254)" stroke="rgb(254,254,254)" stroke-width="1" opacity="1" d="M 227.5 171 L 234 176.5 L 229.5 173 L 227.5 171 Z " /><path fill="rgb(254,254,254)" stroke="rgb(254,254,254)" stroke-width="1" opacity="1" d="M 210.5 172 L 206.5 177 L 210.5 172 Z " /><path fill="rgb(254,254,254)" stroke="rgb(254,254,254)" stroke-width="1" opacity="1" d="M 339.5 174 L 340 179.5 L 339 179.5 L 339.5 174 Z " /><path fill="rgb(254,254,254)" stroke="rgb(254,254,254)" stroke-width="1" opacity="1" d="M 99.5 181 L 100 183.5 L 99 183.5 L 99.5 181 Z " /><path fill="rgb(254,254,254)" stroke="rgb(254,254,254)" stroke-width="1" opacity="1" d="M 236.5 183 L 237 185.5 L 236 185.5 L 236.5 183 Z " /><path fill="rgb(254,254,254)" stroke="rgb(254,254,254)" stroke-width="1" opacity="1" d="M 371.5 183 L 372 184.5 L 370 185.5 L 371.5 183 Z " /><path fill="rgb(254,254,254)" stroke="rgb(254,254,254)" stroke-width="1" opacity="1" d="M 341.5 185 L 342.5 187 L 341.5 185 Z " /><path fill="rgb(254,254,254)" stroke="rgb(254,254,254)" stroke-width="1" opacity="1" d="M 369.5 187 L 366.5 191 L 369.5 187 Z " /><path fill="rgb(254,254,254)" stroke="rgb(254,254,254)" stroke-width="1" opacity="1" d="M 203.5 188 L 204 190.5 L 203 190.5 L 203.5 188 Z " /><path fill="rgb(254,254,254)" stroke="rgb(254,254,254)" stroke-width="1" opacity="1" d="M 236.5 188 L 237 190.5 L 236 190.5 L 236.5 188 Z " /><path fill="rgb(254,254,254)" stroke="rgb(254,254,254)" stroke-width="1" opacity="1" d="M 92.5 190 L 93 192.5 L 92 192.5 L 92.5 190 Z " /><path fill="rgb(254,254,254)" stroke="rgb(254,254,254)" stroke-width="1" opacity="1" d="M 346.5 190 L 347.5 192 L 346.5 190 Z " /><path fill="rgb(254,254,254)" stroke="rgb(254,254,254)" stroke-width="1" opacity="1" d="M 204.5 192 L 206 194.5 L 204 193.5 L 204.5 192 Z " /><path fill="rgb(254,254,254)" stroke="rgb(254,254,254)" stroke-width="1" opacity="1" d="M 235.5 192 L 236 193.5 L 234 194.5 L 235.5 192 Z " /><path fill="rgb(254,254,254)" stroke="rgb(254,254,254)" stroke-width="1" opacity="1" d="M 97.5 195 L 98 197.5 L 97 197.5 L 97.5 195 Z " /><path fill="rgb(254,254,254)" stroke="rgb(254,254,254)" stroke-width="1" opacity="1" d="M 206.5 196 L 210.5 201 L 206.5 196 Z " /><path fill="rgb(254,254,254)" stroke="rgb(254,254,254)" stroke-width="1" opacity="1" d="M 233.5 196 L 229.5 201 L 233.5 196 Z " /><path fill="rgb(254,254,254)" stroke="rgb(254,254,254)" stroke-width="1" opacity="1" d="M 273.5 200 L 272.5 202 L 273.5 200 Z " /><path fill="rgb(254,254,254)" stroke="rgb(254,254,254)" stroke-width="1" opacity="1" d="M 276.5 200 L 279 203.5 L 278 203.5 L 276.5 200 Z " /><path fill="rgb(254,254,254)" stroke="rgb(254,254,254)" stroke-width="1" opacity="1" d="M 280.5 208 L 281.5 210 L 280.5 208 Z " /><path fill="rgb(254,254,254)" stroke="rgb(254,254,254)" stroke-width="1" opacity="1" d="M 306.5 209 L 303.5 213 L 306.5 209 Z " /><path fill="rgb(254,254,254)" stroke="rgb(254,254,254)" stroke-width="1" opacity="1" d="M 311.5 214 L 307.5 219 L 311.5 214 Z " /><path fill="rgb(254,254,254)" stroke="rgb(254,254,254)" stroke-width="1" opacity="1" d="M 280.5 218 L 281.5 220 L 280.5 218 Z " /><path fill="rgb(254,254,254)" stroke="rgb(254,254,254)" stroke-width="1" opacity="1" d="M 450.5 221 L 451 223.5 L 450 223.5 L 450.5 221 Z " /><path fill="rgb(254,254,254)" stroke="rgb(254,254,254)" stroke-width="1" opacity="1" d="M 451.5 228 L 452 230.5 L 451 230.5 L 451.5 228 Z " /><path fill="rgb(254,254,254)" stroke="rgb(254,254,254)" stroke-width="1" opacity="1" d="M 457.5 230 L 458 232.5 L 457 232.5 L 457.5 230 Z " /><path fill="rgb(254,254,254)" stroke="rgb(254,254,254)" stroke-width="1" opacity="1" d="M 452.5 236 L 453 238.5 L 452 238.5 L 452.5 236 Z " /><path fill="rgb(254,254,254)" stroke="rgb(254,254,254)" stroke-width="1" opacity="1" d="M 458.5 239 L 459 242.5 L 458 242.5 L 458.5 239 Z " /><path fill="rgb(254,254,254)" stroke="rgb(254,254,254)" stroke-width="1" opacity="1" d="M 438 246 Q 441.8 245 443 247.5 Q 446 252.5 445 261.5 Q 439.4 290.9 420.5 307 Q 410.2 315.2 391.5 315 L 381 312 Q 380 308.2 382.5 307 L 387.5 305 L 397.5 305 L 407.5 302 L 420 292.5 L 431 275.5 L 438 246 Z " /><path fill="rgb(254,254,254)" stroke="rgb(254,254,254)" stroke-width="1" opacity="1" d="M 453.5 250 L 454 256.5 L 453 256.5 L 453.5 250 Z " /><path fill="rgb(254,254,254)" stroke="rgb(254,254,254)" stroke-width="1" opacity="1" d="M 257.5 255 L 259.5 258 L 257.5 255 Z " /><path fill="rgb(254,254,254)" stroke="rgb(254,254,254)" stroke-width="1" opacity="1" d="M 254.5 259 L 255.5 261 L 254.5 259 Z " /><path fill="rgb(254,254,254)" stroke="rgb(254,254,254)" stroke-width="1" opacity="1" d="M 458.5 261 L 459 263.5 L 458 263.5 L 458.5 261 Z " /><path fill="rgb(254,254,254)" stroke="rgb(254,254,254)" stroke-width="1" opacity="1" d="M 255.5 276 L 253.5 279 L 255.5 276 Z " /><path fill="rgb(254,254,254)" stroke="rgb(254,254,254)" stroke-width="1" opacity="1" d="M 251.5 280 L 248.5 284 L 251.5 280 Z " /><path fill="rgb(254,254,254)" stroke="rgb(254,254,254)" stroke-width="1" opacity="1" d="M 258.5 280 L 252.5 287 L 258.5 280 Z " /><path fill="rgb(254,254,254)" stroke="rgb(254,254,254)" stroke-width="1" opacity="1" d="M 246.5 284 L 245.5 286 L 246.5 284 Z " /><path fill="rgb(254,254,254)" stroke="rgb(254,254,254)" stroke-width="1" opacity="1" d="M 249.5 288 L 248.5 290 L 249.5 288 Z " /><path fill="rgb(254,254,254)" stroke="rgb(254,254,254)" stroke-width="1" opacity="1" d="M 246.5 290 L 245.5 292 L 246.5 290 Z " /><path fill="rgb(254,254,254)" stroke="rgb(254,254,254)" stroke-width="1" opacity="1" d="M 241.5 293 L 240.5 295 L 241.5 293 Z " /><path fill="rgb(254,254,254)" stroke="rgb(254,254,254)" stroke-width="1" opacity="1" d="M 449.5 300 L 448.5 302 L 449.5 300 Z " /><path fill="rgb(254,254,254)" stroke="rgb(254,254,254)" stroke-width="1" opacity="1" d="M 442.5 301 L 440.5 304 L 442.5 301 Z " /><path fill="rgb(254,254,254)" stroke="rgb(254,254,254)" stroke-width="1" opacity="1" d="M 445.5 306 L 440.5 312 L 445.5 306 Z " /><path fill="rgb(254,254,254)" stroke="rgb(254,254,254)" stroke-width="1" opacity="1" d="M 436.5 307 L 435.5 309 L 436.5 307 Z " /><path fill="rgb(254,254,254)" stroke="rgb(254,254,254)" stroke-width="1" opacity="1" d="M 437.5 313 L 436.5 315 L 437.5 313 Z " /><path fill="rgb(254,254,254)" stroke="rgb(254,254,254)" stroke-width="1" opacity="1" d="M 394.5 327 L 393.5 329 L 394.5 327 Z " /><path fill="rgb(254,254,254)" stroke="rgb(254,254,254)" stroke-width="1" opacity="1" d="M 390.5 330 L 385.5 336 L 390.5 330 Z " /><path fill="rgb(254,254,254)" stroke="rgb(254,254,254)" stroke-width="1" opacity="1" d="M 398.5 331 L 397.5 333 L 398.5 331 Z " /><path fill="rgb(254,254,254)" stroke="rgb(254,254,254)" stroke-width="1" opacity="1" d="M 394.5 334 L 389.5 340 L 394.5 334 Z " /><path fill="rgb(254,254,254)" stroke="rgb(254,254,254)" stroke-width="1" opacity="1" d="M 68 335 Q 71.8 334 73 336.5 L 74 342.5 Q 70.4 350.4 72 363.5 Q 73.2 371.3 78.5 375 L 82.5 376 L 83.5 375 L 96.5 374 L 102 377.5 L 103 380.5 L 102 384.5 L 98.5 388 Q 90.2 393.2 74.5 391 Q 66.7 389.3 62 384.5 Q 57 379 59 366.5 L 63 347.5 L 68 335 Z " /><path fill="rgb(254,254,254)" stroke="rgb(254,254,254)" stroke-width="1" opacity="1" d="M 383.5 338 L 382.5 340 L 383.5 338 Z " /><path fill="rgb(254,254,254)" stroke="rgb(254,254,254)" stroke-width="1" opacity="1" d="M 45.5 376 L 46 379.5 L 45 379.5 L 45.5 376 Z " /><path fill="rgb(254,254,254)" stroke="rgb(254,254,254)" stroke-width="1" opacity="1" d="M 45.5 381 L 46 385.5 L 45 385.5 L 45.5 381 Z " /><path fill="rgb(254,254,254)" stroke="rgb(254,254,254)" stroke-width="1" opacity="1" d="M 48.5 394 L 49.5 396 L 48.5 394 Z " /><path fill="rgb(254,254,254)" stroke="rgb(254,254,254)" stroke-width="1" opacity="1" d="M 53.5 399 L 54.5 401 L 53.5 399 Z " /><path fill="rgb(254,254,254)" stroke="rgb(254,254,254)" stroke-width="1" opacity="1" d="M 78.5 400 L 89 400.5 L 78.5 401 L 78.5 400 Z " /><path fill="rgb(254,254,254)" stroke="rgb(254,254,254)" stroke-width="1" opacity="1" d="M 348.5 401 L 347.5 403 L 348.5 401 Z " /><path fill="rgb(254,254,254)" stroke="rgb(254,254,254)" stroke-width="1" opacity="1" d="M 97.5 403 L 99.5 406 L 97.5 403 Z " /><path fill="rgb(254,254,254)" stroke="rgb(254,254,254)" stroke-width="1" opacity="1" d="M 67.5 405 L 70 405.5 L 67.5 406 L 67.5 405 Z " /><path fill="rgb(254,254,254)" stroke="rgb(254,254,254)" stroke-width="1" opacity="1" d="M 345.5 406 L 344.5 408 L 345.5 406 Z " /><path fill="rgb(254,254,254)" stroke="rgb(254,254,254)" stroke-width="1" opacity="1" d="M 94.5 408 L 95.5 410 L 94.5 408 Z " /><path fill="rgb(254,254,254)" stroke="rgb(254,254,254)" stroke-width="1" opacity="1" d="M 342.5 411 L 341.5 413 L 342.5 411 Z " /><path fill="rgb(254,254,254)" stroke="rgb(254,254,254)" stroke-width="1" opacity="1" d="M 346.5 415 L 345.5 417 L 346.5 415 Z " /><path fill="rgb(254,254,254)" stroke="rgb(254,254,254)" stroke-width="1" opacity="1" d="M 343.5 420 L 342.5 422 L 343.5 420 Z " /><path fill="rgb(254,254,254)" stroke="rgb(254,254,254)" stroke-width="1" opacity="1" d="M 98.5 422 L 99 454.5 L 98 454.5 L 98.5 422 Z " /><path fill="rgb(254,254,254)" stroke="rgb(254,254,254)" stroke-width="1" opacity="1" d="M 331.5 428 L 330.5 430 L 331.5 428 Z " /><path fill="rgb(254,254,254)" stroke="rgb(254,254,254)" stroke-width="1" opacity="1" d="M 328.5 432 L 320.5 441 L 328.5 432 Z " /><path fill="rgb(254,254,254)" stroke="rgb(254,254,254)" stroke-width="1" opacity="1" d="M 335.5 432 L 334.5 434 L 335.5 432 Z " /><path fill="rgb(254,254,254)" stroke="rgb(254,254,254)" stroke-width="1" opacity="1" d="M 255.5 433 L 254.5 435 L 255.5 433 Z " /><path fill="rgb(254,254,254)" stroke="rgb(254,254,254)" stroke-width="1" opacity="1" d="M 270.5 434 L 271.5 436 L 270.5 434 Z " /><path fill="rgb(254,254,254)" stroke="rgb(254,254,254)" stroke-width="1" opacity="1" d="M 252.5 437 L 251.5 439 L 252.5 437 Z " /><path fill="rgb(254,254,254)" stroke="rgb(254,254,254)" stroke-width="1" opacity="1" d="M 259.5 437 L 257.5 440 L 259.5 437 Z " /><path fill="rgb(254,254,254)" stroke="rgb(254,254,254)" stroke-width="1" opacity="1" d="M 274.5 437 L 275.5 439 L 274.5 437 Z " /><path fill="rgb(254,254,254)" stroke="rgb(254,254,254)" stroke-width="1" opacity="1" d="M 331.5 437 L 325.5 444 L 331.5 437 Z " /><path fill="rgb(254,254,254)" stroke="rgb(254,254,254)" stroke-width="1" opacity="1" d="M 266.5 438 L 267.5 440 L 266.5 438 Z " /><path fill="rgb(254,254,254)" stroke="rgb(254,254,254)" stroke-width="1" opacity="1" d="M 277.5 439 L 279.5 442 L 277.5 439 Z " /><path fill="rgb(254,254,254)" stroke="rgb(254,254,254)" stroke-width="1" opacity="1" d="M 256.5 441 L 255.5 443 L 256.5 441 Z " /><path fill="rgb(254,254,254)" stroke="rgb(254,254,254)" stroke-width="1" opacity="1" d="M 270.5 441 L 271.5 443 L 270.5 441 Z " /><path fill="rgb(254,254,254)" stroke="rgb(254,254,254)" stroke-width="1" opacity="1" d="M 274.5 444 L 275.5 446 L 274.5 444 Z " /><path fill="rgb(254,254,254)" stroke="rgb(254,254,254)" stroke-width="1" opacity="1" d="M 284.5 444 L 285.5 446 L 284.5 444 Z " /><path fill="rgb(254,254,254)" stroke="rgb(254,254,254)" stroke-width="1" opacity="1" d="M 278.5 447 L 279.5 449 L 278.5 447 Z " /><path fill="rgb(254,254,254)" stroke="rgb(254,254,254)" stroke-width="1" opacity="1" d="M 299.5 448 L 302 448.5 L 299.5 449 L 299.5 448 Z " /><path fill="rgb(254,254,254)" stroke="rgb(254,254,254)" stroke-width="1" opacity="1" d="M 295.5 454 L 298 454.5 L 295.5 455 L 295.5 454 Z " /><path fill="rgb(254,254,254)" stroke="rgb(254,254,254)" stroke-width="1" opacity="1" d="M 104.5 456 L 105 459.5 L 104 459.5 L 104.5 456 Z " /><path fill="rgb(254,254,254)" stroke="rgb(254,254,254)" stroke-width="1" opacity="1" d="M 175.5 458 L 174.5 460 L 175.5 458 Z " /><path fill="rgb(254,254,254)" stroke="rgb(254,254,254)" stroke-width="1" opacity="1" d="M 196.5 458 L 206.5 469 L 196.5 458 Z " /><path fill="rgb(254,254,254)" stroke="rgb(254,254,254)" stroke-width="1" opacity="1" d="M 182.5 460 L 181.5 462 L 182.5 460 Z " /><path fill="rgb(254,254,254)" stroke="rgb(254,254,254)" stroke-width="1" opacity="1" d="M 192.5 462 L 201.5 472 L 192.5 462 Z " /><path fill="rgb(254,254,254)" stroke="rgb(254,254,254)" stroke-width="1" opacity="1" d="M 178.5 463 L 177.5 465 L 178.5 463 Z " /><path fill="rgb(254,254,254)" stroke="rgb(254,254,254)" stroke-width="1" opacity="1" d="M 175.5 465 L 174.5 467 L 175.5 465 Z " /><path fill="rgb(254,254,254)" stroke="rgb(254,254,254)" stroke-width="1" opacity="1" d="M 238.5 465 L 237.5 467 L 238.5 465 Z " /><path fill="rgb(254,254,254)" stroke="rgb(254,254,254)" stroke-width="1" opacity="1" d="M 170.5 468 L 169.5 470 L 170.5 468 Z " /><path fill="rgb(254,254,254)" stroke="rgb(254,254,254)" stroke-width="1" opacity="1" d="M 236.5 468 L 232.5 473 L 236.5 468 Z " /><path fill="rgb(254,254,254)" stroke="rgb(254,254,254)" stroke-width="1" opacity="1" d="M 209.5 470 L 210.5 472 L 209.5 470 Z " /><path fill="rgb(254,254,254)" stroke="rgb(254,254,254)" stroke-width="1" opacity="1" d="M 212.5 472 L 213.5 474 L 212.5 472 Z " /><path fill="rgb(254,254,254)" stroke="rgb(254,254,254)" stroke-width="1" opacity="1" d="M 240.5 472 L 235.5 478 L 240.5 472 Z " /><path fill="rgb(254,254,254)" stroke="rgb(254,254,254)" stroke-width="1" opacity="1" d="M 206.5 475 L 207.5 477 L 206.5 475 Z " /><path fill="rgb(254,254,254)" stroke="rgb(254,254,254)" stroke-width="1" opacity="1" d="M 103.5 477 L 104.5 479 L 103.5 477 Z " /><path fill="rgb(254,254,254)" stroke="rgb(254,254,254)" stroke-width="1" opacity="1" d="M 105.5 480 L 108.5 484 L 105.5 480 Z " /><path fill="rgb(254,254,254)" stroke="rgb(254,254,254)" stroke-width="1" opacity="1" d="M 121.5 481 L 124 481.5 L 121.5 482 L 121.5 481 Z " /><path fill="rgb(255,255,255)" stroke="rgb(255,255,255)" stroke-width="1" opacity="1" d="M 0 0 L 257 0.5 Q 181.4 8.9 142 53.5 L 124 78.5 Q 112.2 99.2 105 124.5 L 96 165.5 L 90 211.5 L 84 242.5 L 68 300.5 L 47 365.5 L 45 376.5 L 45 385.5 Q 46.6 396.4 54.5 401 L 67.5 406 L 88.5 406 L 92.5 407 L 96 410.5 L 98 416.5 L 98 454.5 L 99 455.5 L 99 463.5 L 102 475.5 L 108.5 484 Q 115.7 488.8 129.5 487 L 148.5 481 Q 168 472.5 183.5 460 L 188.5 460 L 207.5 477 Q 214.5 483 229.5 481 Q 236.9 478.4 241 472.5 Q 249.7 459.7 255 443.5 L 260.5 437 L 264.5 437 L 286.5 453 L 297.5 455 L 308.5 453 L 319.5 448 L 332 437.5 Q 362.1 395.1 385 345.5 L 396.5 333 L 406.5 327 Q 422.9 322.4 436.5 315 L 446 306.5 L 452 296.5 L 457 277.5 L 458 264.5 L 459 263.5 L 459 239.5 L 458 238.5 L 458 230.5 L 457 229.5 L 454 205.5 L 449 181.5 L 441 149.5 L 429 110.5 Q 415 74.5 390.5 49 Q 370.8 28.2 343.5 15 L 326.5 8 L 312.5 4 L 287 0.5 L 500 0 L 500 500 L 0 500 L 0 0 Z " /><path fill="rgb(255,255,255)" stroke="rgb(255,255,255)" stroke-width="1" opacity="1" d="M 256.5 6 L 287.5 6 Q 289.3 8.8 295.5 7 L 311.5 10 L 330.5 16 Q 365.5 30.5 389 56.5 Q 416.9 87.1 430 132.5 L 443 182.5 L 450 217.5 L 452 238.5 L 453 239.5 L 453 264.5 L 447 292.5 Q 444.1 301.6 437.5 307 L 423.5 315 Q 408.6 318.1 397.5 325 L 385 335.5 L 337 420.5 Q 329.9 432.4 319.5 441 L 304.5 448 L 295.5 449 L 281.5 443 L 267.5 432 L 259.5 431 L 254 434.5 L 239 464.5 L 230.5 474 L 222.5 476 L 214.5 474 L 208.5 470 L 193.5 456 Q 190.2 452.8 182.5 454 Q 163.2 468.2 139.5 478 L 128.5 481 L 116.5 481 L 109 475.5 L 106 468.5 L 105 456.5 L 104 455.5 L 104 416.5 L 103 411.5 L 97.5 403 L 88.5 400 L 69.5 400 L 64.5 399 L 54 392.5 Q 49.6 387.3 51 376.5 L 58 349.5 L 80 281.5 L 90 243.5 L 95 217.5 L 95 211.5 L 97 204.5 L 102 165.5 L 111 125.5 Q 119.3 96.3 134 73.5 Q 145 56.5 160.5 44 Q 179.5 27.5 205.5 18 L 227.5 11 L 256.5 6 Z M 353 160 L 346 163 Q 340 167 339 175 L 340 184 L 344 190 L 353 194 Q 362 195 367 191 L 373 182 Q 375 171 370 167 Q 366 159 353 160 Z M 216 170 L 211 172 Q 205 176 203 184 Q 202 193 206 197 L 215 203 Q 225 205 230 201 Q 235 197 237 191 Q 238 181 234 177 Q 230 168 216 170 Z M 312 194 L 309 197 Q 310 205 307 209 Q 304 214 297 216 L 292 216 L 285 213 Q 279 210 279 203 Q 278 199 274 200 L 271 204 L 275 214 Q 279 221 289 223 Q 302 225 308 219 L 315 210 Q 317 205 316 197 L 312 194 Z M 180 232 Q 177 233 178 237 L 199 245 L 223 251 L 242 254 L 253 258 L 258 266 L 258 272 L 253 280 Q 240 290 224 297 L 208 302 L 192 305 L 186 305 L 183 308 L 185 310 L 202 309 L 223 303 L 241 295 L 253 287 Q 260 282 263 273 Q 265 262 260 258 Q 255 252 248 250 L 229 247 L 204 241 L 180 232 Z M 438 246 L 431 276 L 420 293 L 408 302 L 398 305 L 388 305 L 383 307 Q 380 308 381 312 L 392 315 Q 410 315 421 307 Q 439 291 445 262 Q 446 253 443 248 Q 442 245 438 246 Z M 68 335 L 63 348 L 59 367 Q 57 379 62 385 Q 67 389 75 391 Q 90 393 99 388 L 102 385 L 103 381 L 102 378 L 97 374 L 84 375 L 83 376 L 79 375 Q 73 371 72 364 Q 70 350 74 343 L 73 337 Q 72 334 68 335 Z " /></svg>